HIERARCHY
ROOT hip
{
	OFFSET 0.000000 0.000000 0.000000 
	CHANNELS 6 Xposition Yposition Zposition Xrotation Zrotation Yrotation
	JOINT abdomen
	{
		OFFSET 0.000000 3.402643 0.000000 
		CHANNELS 3 Xrotation Zrotation Yrotation
		JOINT chest
		{
			OFFSET 0.000000 8.438565 -0.680529 
			CHANNELS 3 Xrotation Zrotation Yrotation
			JOINT neck
			{
				OFFSET 0.000000 10.207942 -0.272212 
				CHANNELS 3 Xrotation Zrotation Yrotation
				JOINT head
				{
					OFFSET 0.000000 3.130431 0.000000 
					CHANNELS 3 Xrotation Zrotation Yrotation
					End Site
					{
						OFFSET 0.000000 3.130435 0.000000 
					}
				}
			}
			JOINT lCollar
			{
				OFFSET 3.470700 6.669187 -0.816635 
				CHANNELS 3 Yrotation Zrotation Xrotation
				JOINT lShldr
				{
					OFFSET 3.198488 0.000000 0.000000 
					CHANNELS 3 Zrotation Yrotation Xrotation
					JOINT lForeArm
					{
						OFFSET 10.139888 0.000000 0.000000 
						CHANNELS 3 Yrotation Zrotation Xrotation
						JOINT lHand
						{
							OFFSET 8.370511 0.000000 0.000000 
							CHANNELS 3 Zrotation Yrotation Xrotation
							End Site
							{
								OFFSET 4.083176 0.000000 0.000000 
							}
						}
					}
				}
			}
			JOINT rCollar
			{
				OFFSET -3.470700 6.669187 -0.816635 
				CHANNELS 3 Yrotation Zrotation Xrotation
				JOINT rShldr
				{
					OFFSET -3.198488 0.000000 0.000000 
					CHANNELS 3 Zrotation Yrotation Xrotation
					JOINT rForeArm
					{
						OFFSET -10.139888 0.000000 0.000000 
						CHANNELS 3 Yrotation Zrotation Xrotation
						JOINT rHand
						{
							OFFSET -8.370511 0.000000 0.000000 
							CHANNELS 3 Zrotation Yrotation Xrotation
							End Site
							{
								OFFSET -4.083176 0.000000 0.000000 
							}
						}
					}
				}
			}
		}
	}
	JOINT lThigh
	{
		OFFSET 5.308129 -1.633274 1.361059 
		CHANNELS 3 Xrotation Zrotation Yrotation
		JOINT lShin
		{
			OFFSET -2.041588 -20.007561 0.000000 
			CHANNELS 3 Xrotation Zrotation Yrotation
			JOINT lFoot
			{
				OFFSET 0.000000 -19.190928 -1.224953 
				CHANNELS 3 Xrotation Yrotation Zrotation
				End Site
				{
					OFFSET 0.000000 -2.449906 4.627600 
				}
			}
		}
	}
	JOINT rThigh
	{
		OFFSET -5.308129 -1.633274 1.361059 
		CHANNELS 3 Xrotation Zrotation Yrotation
		JOINT rShin
		{
			OFFSET 2.041588 -20.007561 0.000000 
			CHANNELS 3 Xrotation Zrotation Yrotation
			JOINT rFoot
			{
				OFFSET 0.000000 -19.190928 -1.224953 
				CHANNELS 3 Xrotation Yrotation Zrotation
				End Site
				{
					OFFSET 0.000000 -2.449906 4.627600 
				}
			}
		}
	}
}
MOTION
Frames: 20
Frame Time: 0.033333
-14.733919 27.088875 0.281282 1.884766 4.619141 54.825005 30.660566 -9.698592 -4.665598 -25.332031 19.619141 4.241560 -8.603516 0.000000 0.000000 14.902344 -9.853516 52.566689 2.000000 -2.000000 0.000000 -10.888672 -9.619140 -103.750000 3.245577 -1.794122 0.031598 1.756760 -3.283567 0.058713 -2.000000 2.000000 0.000000 0.166016 27.324217 -147.617188 132.977509 1.545282 -0.061673 -1.786088 3.264010 0.057537 -8.693318 32.437294 37.646004 42.880863 -2.972097 -2.930685 -0.900933 -8.725502 -0.031036 -17.370832 -27.780275 1.311262 50.646961 2.501941 3.289713 -6.760768 -3.091266 0.002577 
-14.759097 27.061890 0.118926 1.757813 4.345703 55.508556 30.660566 -9.698592 -4.665598 -25.292969 19.609375 5.488283 -8.603516 0.000000 0.000000 14.785157 -9.453124 51.170277 2.000000 -2.000000 0.000000 -10.078125 -11.845702 -102.910156 3.763625 -1.783218 0.050510 1.756760 -3.283567 0.058713 -2.000000 2.000000 0.000000 2.109375 31.708826 -143.061417 133.143524 1.545282 -0.061673 -1.786088 3.264010 0.057537 -9.475002 32.650925 37.244949 42.919109 -2.981954 -2.946352 -0.813696 -9.211279 -0.045896 -17.163355 -27.746782 0.688083 50.500099 2.509467 3.282539 -6.705497 -3.358740 -0.008734 
-14.803388 27.065763 -0.034866 1.650391 4.111328 56.221405 30.660566 -9.698592 -4.665598 -25.273438 19.296875 7.412109 -8.603516 0.000000 0.000000 14.970704 -8.925781 48.963329 2.000000 -2.000000 0.000000 -8.652344 -15.166017 -102.199821 4.730440 -1.792967 0.051089 1.756760 -3.283567 0.058713 -2.000000 2.000000 0.000000 6.777344 37.421875 -133.216721 133.094955 1.545859 -0.071419 -1.786088 3.264010 0.057537 -10.137001 32.734020 36.862831 42.714314 -2.981814 -2.911992 -0.633185 -9.799104 -0.017721 -16.873411 -27.741455 -0.018955 50.264488 2.519153 3.289327 -6.568810 -3.545713 -0.013378 
-14.869757 27.088747 -0.172467 1.513672 4.023438 56.865921 30.660566 -9.698592 -4.665598 -25.244143 18.613285 10.097657 -8.603516 0.000000 0.000000 15.488282 -7.988280 45.799427 2.000000 -2.000000 0.000000 -7.021484 -19.853516 -101.953125 5.228487 -1.792967 0.051089 1.756760 -3.283567 0.058713 -2.000000 2.000000 0.000000 15.087892 43.857422 -116.926826 131.815643 1.555608 -0.070842 -1.786088 3.264010 0.057537 -10.646800 32.738697 36.265362 42.476879 -3.020850 -2.918896 -0.319392 -10.187985 -0.004777 -16.511021 -27.778725 -0.594880 49.991543 2.548513 3.234305 -6.375598 -3.679370 -0.002528 
-14.955755 27.117670 -0.290194 1.357422 4.121094 57.421871 30.660566 -9.698592 -4.665598 -25.185549 17.617189 13.349609 -8.603516 0.000000 0.000000 16.220703 -6.552733 41.785995 2.000000 -2.000000 0.000000 -6.455078 -26.044920 -102.265633 3.578096 -1.792967 0.051089 1.756760 -3.283567 0.058713 -2.000000 2.000000 0.000000 27.119141 49.980469 -95.236664 128.436981 1.556185 -0.080587 -1.786088 3.264010 0.057537 -11.076702 32.610268 35.338871 42.389347 -3.011089 -2.908917 0.118124 -10.366939 -0.002278 -16.002575 -27.835718 -1.196199 49.734573 2.558496 3.287658 -6.175444 -3.847883 -0.017529 
-15.054790 27.144144 -0.387698 1.152344 4.384766 58.037109 30.660566 -9.698592 -4.665598 -24.990236 16.464844 16.972656 -8.603516 0.000000 0.000000 16.923828 -4.794922 37.197266 2.000000 -2.000000 0.000000 -8.505859 -33.486328 -102.427269 -1.803251 -1.794122 0.031598 1.756760 -3.283567 0.058713 -2.000000 2.000000 0.000000 41.953129 54.726563 -70.900230 122.499718 1.556762 -0.090333 -1.786088 3.264010 0.057537 -11.484987 32.469501 34.233765 42.398422 -3.011087 -2.928999 0.502343 -10.365663 -0.019790 -15.369085 -27.984276 -1.824855 49.451088 2.587626 3.250964 -5.911265 -3.875155 -0.009817 
-15.157314 27.166353 -0.465589 0.976563 4.667969 58.760563 30.660566 -9.698592 -4.665598 -24.697266 15.312500 20.712889 -8.603516 0.000000 0.000000 17.363281 -2.978516 32.450665 2.000000 -2.000000 0.000000 -14.042969 -41.386719 -100.605469 -10.788358 -1.795856 0.002362 1.756760 -3.283567 0.058713 -2.000000 2.000000 0.000000 57.646481 57.734375 -47.294918 114.189392 1.576836 -0.098924 -1.786088 3.264010 0.057537 -11.924152 32.313709 33.122601 42.506599 -3.020754 -2.911318 0.713783 -10.339562 -0.031944 -14.638197 -28.163010 -2.629966 49.187450 2.580247 3.228744 -5.671016 -3.836106 0.005195 
-15.251189 27.186625 -0.523344 0.839844 4.902344 59.560547 30.660566 -9.698592 -4.665598 -24.423830 14.218751 24.355469 -8.603516 0.000000 0.000000 17.636721 -1.240234 27.919714 2.000000 -2.000000 0.000000 -22.578123 -48.486328 -94.890121 -21.550339 -1.786685 -0.007962 1.756760 -3.283567 0.058713 -2.000000 2.000000 0.000000 72.041016 59.443363 -26.876354 104.306770 1.606659 -0.107212 -1.786088 3.264010 0.057537 -12.382984 32.148296 32.282452 42.605015 -3.011143 -2.914931 0.712356 -10.375278 0.005140 -13.886060 -28.387053 -3.566962 48.932552 2.599782 3.218897 -5.498083 -3.804703 -0.018230 
-15.325435 27.209347 -0.559828 0.791016 5.048829 60.401257 30.660566 -9.698592 -4.665598 -24.306641 13.203124 27.697540 -8.603516 0.000000 0.000000 17.851563 0.527344 23.877010 2.000000 -2.000000 0.000000 -32.773438 -53.837891 -84.558670 -31.795248 -1.768920 -0.038356 1.756760 -3.283567 0.058713 -2.000000 2.000000 0.000000 83.710938 60.732422 -10.400391 93.779388 1.626156 -0.106062 -1.786088 3.264010 0.057537 -12.823581 32.016846 31.749985 42.622787 -3.030595 -2.942865 0.514201 -10.562968 -0.020449 -13.202144 -28.590208 -4.535335 48.677368 2.616993 3.217660 -5.363753 -3.817412 -0.008394 
-15.373081 27.239567 -0.575788 0.791016 5.097645 61.192326 30.660566 -9.698592 -4.665598 -24.404297 12.226563 30.636837 -8.603516 0.000000 0.000000 18.183594 2.607422 20.264120 2.000000 -2.000000 0.000000 -43.369141 -57.187500 -70.935944 -40.125576 -1.769498 -0.048101 1.756760 -3.283567 0.058713 -2.000000 2.000000 0.000000 93.017578 62.431644 3.348501 82.978569 1.655402 -0.104336 -1.786088 3.264010 0.057537 -13.204565 31.878498 31.360632 42.553921 -3.030677 -2.947575 0.362124 -10.839044 -0.012789 -12.567993 -28.738878 -5.460873 48.383968 2.629150 3.192056 -5.235015 -3.876572 0.002135 
-15.392836 27.280241 -0.574963 0.761719 5.146473 61.895462 30.660566 -9.698592 -4.665598 -24.697266 11.279297 33.076172 -8.603516 0.000000 0.000000 18.720703 5.214844 16.914951 2.000000 -2.000000 0.000000 -53.632809 -58.974606 -56.482975 -46.327026 -1.750579 -0.059004 1.756760 -3.283567 0.058713 -2.000000 2.000000 0.000000 102.294922 64.726570 16.698284 71.562500 1.684648 -0.102610 -1.786088 3.264010 0.057537 -13.517218 31.730312 30.891354 42.438282 -3.011075 -2.912472 0.309756 -11.096595 -0.033123 -11.901736 -28.809776 -6.317118 48.080490 2.665737 3.156686 -5.159980 -3.956301 0.002353 
-15.386510 27.329046 -0.562233 0.605469 5.214844 62.510654 30.660566 -9.698592 -4.665598 -25.048830 10.439453 34.960941 -8.603516 0.000000 0.000000 19.423828 8.310547 13.790476 2.000000 -2.000000 0.000000 -63.339848 -59.794926 -43.320313 -50.829487 -1.741984 -0.079073 1.756760 -3.283567 0.058713 -2.000000 2.000000 0.000000 114.814453 67.050781 31.952349 58.817818 1.712739 -0.081101 -1.786088 3.264010 0.057537 -13.819727 31.602760 30.023565 42.368652 -3.030608 -2.914605 0.384659 -11.137736 -0.019922 -11.111876 -28.743963 -7.214906 47.717335 2.665754 3.169303 -5.087600 -4.026427 -0.003688 
-15.356554 27.377726 -0.541077 0.390625 5.273438 63.154839 30.660566 -9.698592 -4.665598 -25.410156 9.736329 36.142582 -8.603516 0.000000 0.000000 20.224611 11.679688 11.085596 2.000000 -2.000000 0.000000 -72.128906 -60.068359 -32.724609 -54.032364 -1.741407 -0.069328 1.756760 -3.283567 0.058713 -2.000000 2.000000 0.000000 132.617172 68.388680 49.931641 44.305817 1.731658 -0.070201 -1.786088 3.264010 0.057537 -14.228630 31.532839 28.826263 42.398926 -3.020891 -2.903518 0.504954 -10.893901 -0.031517 -10.233062 -28.644617 -8.099544 47.365608 2.685123 3.123001 -5.018657 -4.009628 0.016590 
-15.307613 27.415173 -0.513687 0.087891 5.302733 63.750908 30.660566 -9.698592 -4.665598 -25.732422 9.218750 36.485943 -8.603516 0.000000 0.000000 21.083984 14.824217 9.260311 2.000000 -2.000000 0.000000 -79.228516 -59.970707 -25.262363 -56.268936 -1.741984 -0.079073 1.756760 -3.283567 0.058713 -2.000000 2.000000 0.000000 -25.507814 112.109375 -110.644531 28.640724 1.758594 -0.029488 -1.786088 3.264010 0.057537 -14.756236 31.516392 27.401218 42.575294 -3.011216 -2.922502 0.507111 -10.371110 -0.032690 -9.364911 -28.502712 -9.091171 47.032196 2.724176 3.095803 -5.003424 -3.923774 -0.031254 
-15.249510 27.432217 -0.483800 -0.224609 5.322266 64.179688 30.660566 -9.698592 -4.665598 -25.996094 8.925781 36.054688 -8.603516 0.000000 0.000000 21.914064 17.431643 8.674802 2.000000 -2.000000 0.000000 -83.681641 -59.541012 -21.238884 -57.694752 -1.722487 -0.080230 1.756760 -3.283567 0.058713 -2.000000 2.000000 0.000000 -3.955084 114.472656 -92.607422 13.786685 1.776936 -0.008844 -1.786088 3.264010 0.057537 -15.283401 31.588871 26.099447 42.830288 -3.001700 -2.937546 0.394338 -9.740339 -0.012222 -8.593092 -28.360394 -10.011908 46.767735 2.734263 3.080876 -5.013269 -3.631932 -0.022774 
-15.197084 27.424471 -0.458577 -0.517578 5.341797 64.267578 30.660566 -9.698592 -4.665598 -26.074219 8.798827 35.108910 -8.603516 0.000000 0.000000 22.470705 19.160156 9.339143 2.000000 -2.000000 0.000000 -84.707031 -59.062504 -20.848223 -58.270927 -1.722487 -0.080230 1.756760 -3.283567 0.058713 -2.000000 2.000000 0.000000 12.285161 117.705070 -78.839012 2.233218 1.775203 0.020393 -1.786088 3.264010 0.057537 -15.517513 31.701754 25.219168 43.093155 -3.001144 -2.995348 0.147072 -9.099319 -0.008443 -8.095422 -28.295671 -10.711293 46.639286 2.724376 3.115592 -5.069994 -3.207539 0.020148 
-15.166224 27.392963 -0.445855 -0.722656 5.410156 63.906254 30.660566 -9.698592 -4.665598 -25.810547 8.828125 33.906254 -8.603516 0.000000 0.000000 22.636723 19.902346 11.018950 2.000000 -2.000000 0.000000 -82.285156 -58.779305 -23.846243 -57.880299 -1.722487 -0.080230 1.756760 -3.283567 0.058713 -2.000000 2.000000 0.000000 20.771507 120.771484 -70.499420 -4.447201 1.773470 0.049629 -1.786088 3.264010 0.057537 -15.390514 31.836943 24.838209 43.418396 -2.991313 -2.967360 -0.213678 -8.591741 -0.020398 -7.988444 -28.320423 -10.895806 46.657967 2.736133 3.131466 -5.130894 -2.537696 -0.000483 
-15.167645 27.342993 -0.447630 -0.849609 5.566420 63.077065 30.660566 -9.698592 -4.665598 -25.283203 9.052734 32.587887 -8.603516 0.000000 0.000000 22.431643 19.658203 13.411489 2.000000 -2.000000 0.000000 -77.060547 -58.837894 -29.617729 -56.366592 -1.741984 -0.079073 1.756760 -3.283567 0.058713 -2.000000 2.000000 0.000000 22.500010 123.105469 -66.622673 -6.400326 1.773470 0.049629 -1.786088 3.264010 0.057537 -14.922114 31.969919 24.945917 43.780949 -2.982377 -2.990468 -0.577465 -8.068955 0.006883 -8.359268 -28.432774 -10.571513 46.795387 2.724403 3.136555 -5.218521 -1.811103 -0.017746 
-15.203156 27.283985 -0.455772 -0.830078 5.654311 61.954029 30.660566 -9.698592 -4.665598 -24.707031 9.472657 31.017231 -8.603516 0.000000 0.000000 22.177734 18.701170 16.311724 2.000000 -2.000000 0.000000 -70.117188 -59.101559 -37.274002 -53.817764 -1.741984 -0.079073 1.756760 -3.283567 0.058713 -2.000000 2.000000 0.000000 20.136736 124.707031 -65.021271 -4.945248 1.773470 0.049629 -1.786088 3.264010 0.057537 -14.306879 32.083988 25.506222 44.105412 -2.952924 -3.002867 -0.887359 -7.753349 -0.037714 -9.130501 -28.617338 -9.807816 47.002865 2.724128 3.093663 -5.287915 -0.959670 -0.011571 
-15.265262 27.229107 -0.455604 -0.615234 5.625000 60.743145 30.660566 -9.698592 -4.665598 -24.384766 10.019532 28.925779 -8.603516 0.000000 0.000000 22.285156 17.373047 19.612291 2.000000 -2.000000 0.000000 -62.392574 -59.208984 -45.975189 -50.555801 -1.741407 -0.069328 1.756760 -3.283567 0.058713 -2.000000 2.000000 0.000000 15.869152 125.703133 -63.820194 -1.253354 1.774625 0.030138 -1.786088 3.264010 0.057537 -13.701666 32.194286 26.370758 44.340538 -2.933437 -3.031906 -1.166506 -7.554593 -0.021198 -10.223407 -28.832100 -8.909069 47.236607 2.687983 3.163418 -5.347876 -0.203242 -0.034959 
